<svg width="921" height="1077" viewBox="0 0 921 1077" fill="none" xmlns="http://www.w3.org/2000/svg">
<path d="M163.755 911.995H132.36L109.155 1021H67.035L90.24 911.995H59.235L62.745 897.175H167.07L163.755 911.995ZM179.489 897.175H261.584L258.464 911.995H218.684L210.494 949.63H243.839L240.719 964.255H207.374L198.404 1005.98H238.184L235.259 1021H153.164L179.489 897.175ZM359.265 1021H313.635L310.905 989.995H274.83L260.985 1021H242.07L299.595 897.175H345.81L359.265 1021ZM281.265 975.76H309.54L305.055 922.72L281.265 975.76ZM511.67 1021H468.38L486.32 936.76L440.105 1021H413.585L404.81 933.835L386.09 1021H368.54L394.865 897.175H444.59L450.635 966.985L488.075 897.175H538.19L511.67 1021ZM572.656 1003.84C572.656 1006.83 572.006 1009.49 570.706 1011.83C569.536 1014.17 567.911 1016.12 565.831 1017.68C563.881 1019.24 561.606 1020.41 559.006 1021.2C556.406 1022.11 553.676 1022.56 550.816 1022.56C545.876 1022.56 541.651 1021.26 538.141 1018.66C534.761 1015.93 533.071 1011.7 533.071 1005.98C533.071 1002.99 533.656 1000.33 534.826 997.99C535.996 995.65 537.556 993.7 539.506 992.14C541.456 990.58 543.666 989.41 546.136 988.63C548.736 987.72 551.401 987.265 554.131 987.265C559.461 987.265 563.881 988.63 567.391 991.36C570.901 993.96 572.656 998.12 572.656 1003.84ZM693.134 1010.47C689.884 1012.03 686.504 1013.59 682.994 1015.15C679.614 1016.58 675.974 1017.88 672.074 1019.05C668.174 1020.09 663.884 1020.93 659.204 1021.59C654.654 1022.24 649.649 1022.56 644.189 1022.56C626.769 1022.56 613.314 1018.66 603.824 1010.86C594.464 1003.06 589.784 990.06 589.784 971.86C589.784 961.33 591.409 951.45 594.659 942.22C597.909 932.86 602.719 924.735 609.089 917.845C615.459 910.825 623.324 905.3 632.684 901.27C642.044 897.24 652.769 895.225 664.859 895.225C670.579 895.225 675.779 895.615 680.459 896.395C685.269 897.175 689.559 898.215 693.329 899.515C697.229 900.685 700.674 901.985 703.664 903.415C706.784 904.845 709.579 906.21 712.049 907.51L705.029 943.78H669.929C670.059 942.48 670.189 940.79 670.319 938.71C670.579 936.63 670.774 934.55 670.904 932.47C671.034 930.26 671.164 928.115 671.294 926.035C671.424 923.955 671.489 922.2 671.489 920.77C671.489 919.73 671.424 918.56 671.294 917.26C671.164 915.83 670.839 914.465 670.319 913.165C669.799 911.865 668.954 910.825 667.784 910.045C666.744 909.135 665.314 908.68 663.494 908.68C660.114 908.68 656.994 910.11 654.134 912.97C651.404 915.7 648.934 919.405 646.724 924.085C644.514 928.635 642.564 933.835 640.874 939.685C639.184 945.535 637.754 951.515 636.584 957.625C635.544 963.605 634.699 969.52 634.049 975.37C633.529 981.22 633.269 986.355 633.269 990.775C633.269 992.075 633.334 993.7 633.464 995.65C633.594 997.6 633.984 999.485 634.634 1001.3C635.284 1003.12 636.259 1004.68 637.559 1005.98C638.989 1007.28 640.874 1007.93 643.214 1007.93C647.244 1007.93 651.144 1005.46 654.914 1000.52C658.684 995.455 661.999 986.485 664.859 973.615H700.934L693.134 1010.47ZM817.675 1010.47C814.425 1012.03 811.045 1013.59 807.535 1015.15C804.155 1016.58 800.515 1017.88 796.615 1019.05C792.715 1020.09 788.425 1020.93 783.745 1021.59C779.195 1022.24 774.19 1022.56 768.73 1022.56C751.31 1022.56 737.855 1018.66 728.365 1010.86C719.005 1003.06 714.325 990.06 714.325 971.86C714.325 961.33 715.95 951.45 719.2 942.22C722.45 932.86 727.26 924.735 733.63 917.845C740 910.825 747.865 905.3 757.225 901.27C766.585 897.24 777.31 895.225 789.4 895.225C795.12 895.225 800.32 895.615 805 896.395C809.81 897.175 814.1 898.215 817.87 899.515C821.77 900.685 825.215 901.985 828.205 903.415C831.325 904.845 834.12 906.21 836.59 907.51L829.57 943.78H794.47C794.6 942.48 794.73 940.79 794.86 938.71C795.12 936.63 795.315 934.55 795.445 932.47C795.575 930.26 795.705 928.115 795.835 926.035C795.965 923.955 796.03 922.2 796.03 920.77C796.03 919.73 795.965 918.56 795.835 917.26C795.705 915.83 795.38 914.465 794.86 913.165C794.34 911.865 793.495 910.825 792.325 910.045C791.285 909.135 789.855 908.68 788.035 908.68C784.655 908.68 781.535 910.11 778.675 912.97C775.945 915.7 773.475 919.405 771.265 924.085C769.055 928.635 767.105 933.835 765.415 939.685C763.725 945.535 762.295 951.515 761.125 957.625C760.085 963.605 759.24 969.52 758.59 975.37C758.07 981.22 757.81 986.355 757.81 990.775C757.81 992.075 757.875 993.7 758.005 995.65C758.135 997.6 758.525 999.485 759.175 1001.3C759.825 1003.12 760.8 1004.68 762.1 1005.98C763.53 1007.28 765.415 1007.93 767.755 1007.93C771.785 1007.93 775.685 1005.46 779.455 1000.52C783.225 995.455 786.54 986.485 789.4 973.615H825.475L817.675 1010.47Z" fill="#85898C"/>
<path fill-rule="evenodd" clip-rule="evenodd" d="M169.059 870.145L31.5589 634.645C12.8922 609.145 -21.4411 554.745 18.5589 457.145C58.5589 359.545 102.892 253.478 120.059 212.645C136.726 181.978 183.359 111.345 236.559 74.1452C303.059 27.6452 359.559 -2.35485 450.559 0.145154C523.359 2.14515 682.226 0.978488 752.559 0.145154L907.059 268.645C916.559 284.145 930.559 331.045 910.559 394.645L805.059 650.145C789.559 686.478 739.959 769.545 665.559 811.145C572.559 863.145 496.059 869.645 423.559 870.645C365.559 871.445 229.726 870.645 169.059 870.145ZM336.559 217.645H558.059L676.559 435.645L584.059 653.645H366.559L245.059 436.645L336.559 217.645Z" fill="#85898C"/>
<path d="M526.133 790.7H690.271C699.279 770.175 718.995 724.559 725.801 706.286C732.607 688.012 728.637 674.175 725.801 669.541C720.196 656.432 705.117 653.485 698.278 653.651H584.182L561.663 709.265H669.754L658.744 735.582H495.607L438.559 870.645H654.741L678.261 816.52H515.123L526.133 790.7Z" fill="black"/>
</svg>
